<svg xmlns="http://www.w3.org/2000/svg" width="250" height="250" viewBox="0 0 250 250">
<!-- SVG created with Arrow, by QuiverAI (https://quiver.ai) -->
  <path d="m187.7 67.64c-15.73 0-29.84 6.55-40.53 17.72l-14.3 15.34-0.1 0.11c2.84 0.84 4.98 2.05 5.99 2.85l13.9-14.94c9.53-9.76 20.8-14.48 35.03-14.48 27.3 0 49.7 23.67 49.7 51.72 0 5.1-3.55 8.21-8.64 8.21h-0.32c0.26-2.02 0.4-4.06 0.36-6.1-0.05-2.4-1.92-2.86-2.75-2.86-1.94 0-3.17 1.4-3.27 3.23-0.88 17.44-14.88 34.31-36.17 34.31-2.31 0-2.83 1.86-2.83 3.08 0 1.75 1.12 2.82 2.99 2.82 19.28 0 36.41-12.76 41.23-29.54h0.75c8.39 0 14.24-6.3 14.24-13.62 0-31.36-24.29-57.85-55.28-57.85z" fill="#1B3A56"/>
  <path d="m138.9 145.4c-2.24 1.85-5.04 2.97-6.2 3.28l16.31 16.64c9.74 9.36 22.35 15.45 38.25 15.45 23.53 0 44.63-16 53.09-38.29-2.39 2.26-4.54 3.12-7.89 3.6-8.6 17.86-24.45 28.84-45.2 28.84-12.38 0-24.26-5.28-31.1-12.12l-17.26-17.4z" fill="#1B3A56"/>
  <path d="m61.86 67.64c-29.85 0-55.14 25.61-55.14 57.37 0 29.37 23.63 56.11 55.2 56.11 14.22 0 26.97-5.83 35.99-14.27l18.47-18.23c-2.06-0.56-4.09-1.55-6.07-2.88l-16.17 16.74c-8.23 8.13-18.83 12.58-32.06 12.58-27.83 0-49.64-23.7-49.64-50.34 0-27.68 21.75-51.01 49.27-51.01 14.17 0 25.47 5.32 34.37 14.22l14.23 15.33c1.91-1.4 3.8-2.2 5.97-2.8l-15.46-16.55c-10.1-10.1-22.06-16.27-38.96-16.27z" fill="#1B3A56"/>
  <path d="m124.8 105.4c-11.11 0-19.2 9.47-19.2 19.43 0 10.66 8.44 18.74 18.9 18.74 10.61 0 18.79-9.62 18.79-19.63 0-10.12-8.59-18.54-18.49-18.54zm-0.3 32.16c-8.24 0-13.18-7.32-13.18-13.36 0-6.36 4.97-11.57 9.93-12.46v9.19c0 2.45 1.54 3.07 3.09 3.07 1.75 0 2.97-1.18 2.97-3.07v-8.84c6.16 1.63 9.96 7.1 9.96 12.63 0 7.41-6.11 12.84-12.77 12.84z" fill="#1B3A56"/>
  <path d="m146.9 113.7 15.2-15.53c8.03-8.03 14.82-10.96 25.18-11.27 2.69-0.08 2.64-2.54 2.64-2.85 0-1.85-1.42-2.68-2.74-2.68-11.38 0-21.04 5.73-28.91 13.86l-14.97 13.72c1.61 1.83 2.84 3.66 3.6 4.75z" fill="#A4C856"/>
  <path d="m213.3 131.9c2.2 0.77 3.61-1.17 3.61-3.42 0-4.86 3.7-8.95 8.66-8.95 2.46 0 3.95 0.87 6.1 1.64l0.05-6.07c-0.61-0.66-0.61-0.92-0.81-1.02-1.08-0.47-2.51-0.47-5.11-0.47-8.48 0-15.23 8.28-15.23 15.44 0 1.27 0.92 2.29 2.73 2.85z" fill="#1B3A56"/>
  <path d="m61.61 81.33c-24.43 0-43.38 20.29-43.38 43.79 0 22.69 17.26 43.17 41.58 43.17 11.53 0 21.09-4.31 29.12-12.54l16.59-15.33-3.03-4.94-16.38 16.74c-6.89 6.94-13.89 10.06-24.7 10.06-20.84 0-36.6-17.17-36.6-37.36 0-20.79 15.91-37.86 36.7-37.86 9.47 0 17.4 3.7 23.9 9.17 2 1.74 4.55 0.97 5.21-0.57 0.82-2.05-0.61-3.74-1.84-4.86-7.88-6.43-16.11-9.47-27.17-9.47z" fill="#A4C856"/>
</svg>